<svg xmlns="http://www.w3.org/2000/svg" width="168.99" height="169" viewBox="0 0 168.99 169">
  <g id="vision" transform="translate(-10.011 -9.982)">
    <path id="Path_233" data-name="Path 233" d="M243.222,126.1H198.375A10.434,10.434,0,0,0,188,136.461l-.034,4.521-.361,0a13.6,13.6,0,1,0-.031,27.2l.2,0-.137,20.109H170.149a13.819,13.819,0,0,0-.161-3.343,13.53,13.53,0,0,0-11.993-11.2,13.362,13.362,0,0,0-10.383,3.44,13.66,13.66,0,0,0-4.461,10.094q0,.5.038,1.009h-9.171a10.419,10.419,0,0,0-10.378,10.436v45.62a10.419,10.419,0,0,0,10.378,10.436h53.669l55.108.429h.083a10.282,10.282,0,0,0,7.263-2.984,10.389,10.389,0,0,0,3.112-7.385l.335-52.254h.013V136.536A10.419,10.419,0,0,0,243.222,126.1ZM187.157,250.664H134.02a6.292,6.292,0,0,1-6.256-6.314V198.731a6.292,6.292,0,0,1,6.256-6.314H144.6a2.863,2.863,0,0,0,2.2-1.03,2.909,2.909,0,0,0,.629-2.394,9.53,9.53,0,0,1,2.956-8.751,9.293,9.293,0,0,1,7.217-2.388,9.4,9.4,0,0,1,8.325,7.79,9.615,9.615,0,0,1-.013,3.342,2.916,2.916,0,0,0,.63,2.4,2.874,2.874,0,0,0,2.212,1.035h18.849l-.12,15.56a13.505,13.505,0,0,0-14.536,12.118,13.712,13.712,0,0,0,3.4,10.535,13.518,13.518,0,0,0,9.94,4.5c.328,0,.659-.007.989-.029Zm61.973-5.844a6.3,6.3,0,0,1-1.884,4.476,6.187,6.187,0,0,1-4.37,1.8h-.049l-51.547-.4.13-16.965a2.888,2.888,0,0,0-3.4-2.863,9.04,9.04,0,0,1-1.689.141,9.476,9.476,0,1,1,1.825-18.786,2.9,2.9,0,0,0,3.45-2.82l.131-16.966,17.444.141a13.806,13.806,0,0,0,.16,3.362,13.53,13.53,0,0,0,11.993,11.2q.677.065,1.346.065a13.327,13.327,0,0,0,9.037-3.5,13.66,13.66,0,0,0,4.461-10.095c0-.336-.012-.673-.037-1.009h13.334Zm.348-56.349H234.724a2.863,2.863,0,0,0-2.2,1.03,2.91,2.91,0,0,0-.628,2.392,9.53,9.53,0,0,1-2.956,8.751,9.286,9.286,0,0,1-7.217,2.387,9.4,9.4,0,0,1-8.325-7.788,9.624,9.624,0,0,1,.014-3.35,2.915,2.915,0,0,0-.622-2.387,2.876,2.876,0,0,0-2.2-1.044l-18.833-.151.151-22.141c0-.037,0-.073,0-.11a.676.676,0,0,0,0-.091c0-.038-.01-.075-.015-.112s-.008-.063-.013-.093-.017-.071-.026-.107-.014-.061-.023-.091-.024-.069-.034-.1a.921.921,0,0,0-.032-.088c-.012-.029-.029-.064-.044-.1s-.026-.058-.041-.086-.034-.059-.052-.088-.032-.056-.049-.083-.039-.054-.059-.081-.038-.054-.058-.08-.043-.048-.064-.072-.044-.052-.069-.076-.046-.043-.069-.064-.05-.048-.077-.071-.048-.037-.071-.055-.056-.045-.086-.065-.051-.032-.076-.048-.061-.04-.092-.057-.055-.027-.082-.041-.064-.034-.1-.048l-.088-.034c-.029-.012-.067-.026-.1-.037s-.061-.017-.093-.025-.069-.02-.1-.027-.065-.011-.1-.016-.069-.013-.106-.017-.069,0-.1-.007-.066-.006-.1-.007l-2.274-.034a9.477,9.477,0,1,1,.022-18.953l2.407-.025c.029,0,.057,0,.085-.005s.077,0,.115-.007.063-.01.095-.014.073-.01.108-.018.065-.016.1-.025.066-.016.1-.026l.1-.034a.848.848,0,0,0,.089-.034l.1-.046c.027-.013.055-.026.081-.041s.063-.037.094-.057.05-.03.075-.046.059-.044.089-.066.047-.034.069-.053.054-.048.081-.073.044-.039.065-.06.048-.052.071-.078.042-.045.061-.069.042-.055.062-.083.038-.05.056-.076.034-.058.053-.087.034-.055.049-.083.03-.061.045-.091.029-.058.042-.089.024-.064.034-.1.023-.061.034-.092.018-.069.027-.1.017-.063.023-.1.012-.07.017-.105.011-.065.014-.1,0-.072.006-.108,0-.055.005-.083l.048-6.548a6.3,6.3,0,0,1,6.256-6.269h44.849a6.293,6.293,0,0,1,6.256,6.316Z" transform="translate(-74.598 -76.233)" fill="#ff0040"/>
    <path id="Path_234" data-name="Path 234" d="M455.961,257.265a2.061,2.061,0,0,0-2.061,2.061v4.279a2.061,2.061,0,0,0,4.122,0v-4.279A2.061,2.061,0,0,0,455.961,257.265Z" transform="translate(-291.42 -162.345)" fill="#ff0040"/>
    <path id="Path_235" data-name="Path 235" d="M455.961,161.967a2.061,2.061,0,0,0-2.061,2.061v22.406a2.061,2.061,0,0,0,4.122,0V164.028A2.061,2.061,0,0,0,455.961,161.967Z" transform="translate(-291.42 -99.781)" fill="#ff0040"/>
    <path id="Path_236" data-name="Path 236" d="M458.253,454.931a2.061,2.061,0,0,0,2.061-2.061v-4.279a2.061,2.061,0,1,0-4.122,0v4.279A2.061,2.061,0,0,0,458.253,454.931Z" transform="translate(-292.925 -286.601)" fill="#ff0040"/>
    <path id="Path_237" data-name="Path 237" d="M458.253,377.759a2.061,2.061,0,0,0,2.061-2.061V353.293a2.061,2.061,0,1,0-4.122,0V375.7a2.061,2.061,0,0,0,2.061,2.061Z" transform="translate(-292.925 -224.036)" fill="#ff0040"/>
    <path id="Path_238" data-name="Path 238" d="M60.436,95.468a10.38,10.38,0,0,0,8.849-4.933l4.944-8.029a2.9,2.9,0,0,0-1.223-4.139A9.513,9.513,0,1,1,81,61.1a9.636,9.636,0,0,1,1.869,1.164,2.895,2.895,0,0,0,4.272-.737l6.015-9.769a10.47,10.47,0,0,0-3.417-14.4l-9.534-5.853a13.643,13.643,0,0,0-2.844-18.774,13.343,13.343,0,0,0-10.68-2.5,13.546,13.546,0,0,0-9.012,6.286q-.257.424-.481.867l-7.821-4.8A10.345,10.345,0,0,0,35.1,16.065L11.521,55.019A10.484,10.484,0,0,0,14.98,69.353L21.739,73.5a2.748,2.748,0,0,0,3.91-1.149,8.363,8.363,0,1,1,14.189,8.7,2.748,2.748,0,0,0,.742,4.012l14.475,8.883a10.254,10.254,0,0,0,5.381,1.522ZM45.641,75.177a12.487,12.487,0,0,0-22.966-5.936l-5.539-3.4a6.352,6.352,0,0,1-2.089-8.687L38.623,18.2a6.223,6.223,0,0,1,8.589-2.1l9.034,5.542a2.861,2.861,0,0,0,2.428.272,2.9,2.9,0,0,0,1.776-1.717,9.433,9.433,0,0,1,7.014-5.912,9.268,9.268,0,0,1,7.419,1.745,9.522,9.522,0,0,1,1.333,13.891,2.868,2.868,0,0,0-.695,2.332A2.9,2.9,0,0,0,76.878,34.3l10.711,6.574A6.347,6.347,0,0,1,89.652,49.6l-5.324,8.644a13.853,13.853,0,0,0-1.557-.865,13.546,13.546,0,0,0-16.487,4,13.7,13.7,0,0,0,3.661,20.008l.093.057-4.263,6.924a6.242,6.242,0,0,1-8.563,2.061L43.955,82.3a12.516,12.516,0,0,0,1.686-7.12Z" transform="translate(0)" fill="#ff0040"/>
  </g>
</svg>
