<svg id="Layer_2" height="512" viewBox="0 0 128 128" width="512" xmlns="http://www.w3.org/2000/svg" data-name="Layer 2"><path d="m79.794 47.792h-31.588a16.712 16.712 0 0 1 -7.072 13.523c-8 5.765-13.1 14.491-13.1 24.26 0 17.36 16.1 31.433 35.968 31.433s35.968-14.073 35.968-31.433c0-9.769-5.1-18.5-13.1-24.26a16.712 16.712 0 0 1 -7.076-13.523z" fill="#632855"/><g fill="#60d882"><path d="m69.416 47.792h-10.832v-24.655a44.942 44.942 0 0 1 5.416-21.387 44.942 44.942 0 0 1 5.416 21.387z"/><path d="m58.019 23.826a21.2 21.2 0 0 0 -19.189-19.074l4.47 4.361a21.2 21.2 0 0 1 6.25 12.659l3.114 26.02h5.917v-18.113z"/><path d="m30.115 17.541-4.285-.866 4.647 3.217a46.455 46.455 0 0 1 18.856 27.9h3.334l-2.014-16.83a33.154 33.154 0 0 0 -20.538-13.421z"/><path d="m69.981 23.826a21.2 21.2 0 0 1 19.189-19.074l-4.47 4.361a21.2 21.2 0 0 0 -6.25 12.659l-3.114 26.02h-5.92v-18.113z"/><path d="m97.885 17.541 4.285-.866-4.647 3.217a46.455 46.455 0 0 0 -18.856 27.9h-3.334l2.014-16.83a33.154 33.154 0 0 1 20.538-13.421z"/></g><path d="m78.232 124.587-1.32-.433a23.152 23.152 0 0 1 -9.984-6.508l-1.628-1.808c-.011-.012-.023-.02-.034-.031s-.044-.045-.067-.067-.02-.024-.031-.034-.046-.032-.068-.05-.061-.052-.094-.075-.053-.035-.079-.052-.079-.045-.119-.066-.063-.035-.1-.05-.059-.024-.089-.035-.087-.03-.131-.043-.068-.022-.1-.029-.063-.013-.095-.018-.087-.012-.131-.016-.078-.008-.118-.009c-.016 0-.032-.005-.048-.005s-.031 0-.048.005c-.039 0-.078 0-.117.009s-.087.008-.131.016-.065.01-.1.018-.066.019-.1.029-.087.026-.13.042-.062.023-.092.036-.063.033-.094.05-.08.042-.119.066l-.081.052c-.032.023-.061.05-.092.075s-.047.031-.069.05-.019.023-.031.034l-.067.067c-.011.012-.023.019-.034.031l-1.625 1.808a23.161 23.161 0 0 1 -9.985 6.508l-1.32.433a1.75 1.75 0 0 0 .551 3.413 1.72 1.72 0 0 0 .545-.087l1.321-.433a26.657 26.657 0 0 0 10.072-6.038v4.808a1.75 1.75 0 0 0 3.5 0v-4.808a26.657 26.657 0 0 0 10.072 6.038l1.321.433a1.718 1.718 0 0 0 .544.087 1.75 1.75 0 0 0 .545-3.413z" fill="#d3643d"/><path d="m92.854 66.735a1.752 1.752 0 0 0 -.326 2.454c.493.644.96 1.308 1.387 1.974a1.75 1.75 0 1 0 2.947-1.889c-.479-.748-1-1.492-1.554-2.213a1.751 1.751 0 0 0 -2.454-.326z"/><path d="m103.78 15.99a1.751 1.751 0 0 0 -1.957-1.03l-4.285.865a34.724 34.724 0 0 0 -17.759 9.546l.406-3.391a19.5 19.5 0 0 1 5.734-11.614l4.473-4.361a1.75 1.75 0 0 0 -1.38-3 22.961 22.961 0 0 0 -18.474 12.657 46.768 46.768 0 0 0 -5-14.745 1.75 1.75 0 0 0 -3.078 0 46.768 46.768 0 0 0 -5 14.745 22.961 22.961 0 0 0 -18.472-12.653 1.75 1.75 0 0 0 -1.38 3l4.473 4.361a1.75 1.75 0 0 0 2.6-2.336 19.468 19.468 0 0 1 11.6 15.964l.558 5.769v16.275h-2.619l-2.93-24.478a1.75 1.75 0 0 0 -3.475.416l.406 3.391a34.724 34.724 0 0 0 -17.759-9.546l-4.285-.865a1.75 1.75 0 0 0 -1.343 3.154l4.646 3.217a44.588 44.588 0 0 1 17.695 25.053 1.743 1.743 0 0 0 -.719 1.408 15.034 15.034 0 0 1 -6.345 12.1c-8.789 6.331-13.829 15.69-13.829 25.679 0 17.159 14.882 31.318 33.887 33.013a23.158 23.158 0 0 1 -9.081 5.566l-1.32.433a1.75 1.75 0 0 0 .544 3.417 1.72 1.72 0 0 0 .545-.087l1.321-.433a26.657 26.657 0 0 0 10.072-6.038v4.808a1.75 1.75 0 0 0 3.5 0v-4.808a26.657 26.657 0 0 0 10.072 6.038l1.321.433a1.718 1.718 0 0 0 .544.087 1.75 1.75 0 0 0 .545-3.413l-1.32-.433a23.138 23.138 0 0 1 -9.08-5.567c19.005-1.694 33.886-15.853 33.886-33.012a29.587 29.587 0 0 0 -1.125-8.079 1.75 1.75 0 0 0 -3.367.957 26.066 26.066 0 0 1 .992 7.122c0 13.553-10.529 25-24.861 28.545a42.37 42.37 0 0 0 15.025-17.855 1.75 1.75 0 1 0 -3.192-1.436 38.867 38.867 0 0 1 -15.276 17.343 69.077 69.077 0 0 0 8.2-16.039 1.75 1.75 0 1 0 -3.3-1.172 65.557 65.557 0 0 1 -9.066 17.024v-16.438a1.75 1.75 0 0 0 -3.5 0v16.438a65.588 65.588 0 0 1 -9.066-17.024 1.75 1.75 0 1 0 -3.3 1.172 69.051 69.051 0 0 0 8.2 16.038 38.859 38.859 0 0 1 -15.272-17.342 1.75 1.75 0 0 0 -3.192 1.436 42.37 42.37 0 0 0 15.025 17.855c-14.332-3.54-24.861-14.992-24.861-28.545 0-8.849 4.511-17.175 12.374-22.84a18.639 18.639 0 0 0 7.713-13.193h28.262a18.639 18.639 0 0 0 7.713 13.193 1.749 1.749 0 0 0 2.045-2.835 15.034 15.034 0 0 1 -6.345-12.1 1.743 1.743 0 0 0 -.719-1.408 44.588 44.588 0 0 1 17.695-25.061l4.646-3.217a1.749 1.749 0 0 0 .614-2.124zm-20.492-7.945a23.013 23.013 0 0 0 -6.578 13.519l-2.93 24.478h-2.614v-16.276l.558-5.772a19.464 19.464 0 0 1 11.564-15.949zm-49.074 12.455a31.307 31.307 0 0 1 14.754 11.115l1.715 14.324a48.057 48.057 0 0 0 -16.469-25.439zm26.12 9.181v-6.543a43.338 43.338 0 0 1 3.666-17.41 43.338 43.338 0 0 1 3.666 17.41v22.9h-7.332zm16.983 16.26 1.715-14.324a31.307 31.307 0 0 1 14.754-11.117 48.057 48.057 0 0 0 -16.469 25.439z"/></svg>